<svg version="1.0" xmlns="http://www.w3.org/2000/svg" viewBox="0 0 488.000000 159.000000" preserveAspectRatio="xMidYMid meet">

<g transform="translate(0.000000,159.000000) scale(0.100000,-0.100000)" fill="#f44336" stroke="none">
<path d="M612 1425 c-224 -50 -414 -229 -482 -450 -48 -157 -34 -317 42 -474 52 -110 167 -228 275 -284 299 -156 665 -65 846 211 78 120 106 215 107 362 0 116 -17 189 -70 295 -73 148 -207 265 -366 320 -99 33 -255 43 -352 20z m244 -76 c32 -6 97 -29 144 -51 235 -112 362 -372 309 -630 -31 -153 -148 -308 -286 -381 -166 -87 -348 -90 -518 -8 -141 67 -233 172 -287 325 -23 67 -28 98 -28 176 0 172 50 292 169 410 140 138 310 193 497 159z" fill="#f44336"/>
<path d="M645 1130 c-105 -41 -177 -143 -196 -276 -25 -180 40 -327 173 -393 54 -27 71 -31 147 -31 103 0 166 25 222 87 40 44 78 129 63 142 -12 10 -133 45 -138 40 -2 -2 -13 -25 -24 -51 -50 -114 -192 -118 -256 -8 -18 30 -21 52 -21 145 0 135 17 177 86 213 75 39 156 15 188 -56 11 -23 21 -32 38 -32 31 0 115 20 127 31 15 13 -42 116 -82 147 -20 16 -56 36 -80 45 -59 24 -182 22 -247 -3z" fill="#f44336"/>
<path d="M1612 973 c-18 -9 -45 -32 -60 -51 -25 -33 -27 -43 -30 -155 -4 -141 -1 -156 40 -203 47 -53 81 -64 200 -64 116 0 172 19 209 72 19 26 22 44 23 163 0 74 -2 127 -6 117 -5 -14 -7 -13 -7 5 -1 27 -44 79 -82 98 -20 11 -61 15 -141 15 -127 0 -162 -13 -198 -72 -17 -28 -20 -51 -20 -154 0 -109 2 -124 23 -154 38 -56 77 -70 195 -70 118 0 156 12 196 61 15 19 23 24 17 13 -16 -34 -68 -73 -105 -80 -19 -3 -79 -4 -134 -2 -111 3 -136 14 -179 78 -21 30 -23 45 -23 155 0 110 2 125 23 156 12 18 38 44 56 56 30 21 46 23 148 23 130 0 175 -15 212 -72 11 -18 21 -28 21 -21 0 20 -48 70 -84 87 -48 23 -247 22 -294 -1z m253 -79 c30 -12 45 -60 45 -148 0 -139 -18 -156 -156 -156 -81 0 -87 1 -115 29 -28 29 -29 33 -29 126 0 93 1 97 29 126 28 28 33 29 119 29 50 0 98 -3 107 -6z m122 -266 c-3 -8 -6 -5 -6 6 -1 11 2 17 5 13 3 -3 4 -12 1 -19z" fill="#f44336"/>
<path d="M1645 865 c-23 -22 -25 -32 -25 -120 0 -88 2 -98 25 -120 22 -23 32 -25 115 -25 83 0 93 2 115 25 23 22 25 32 25 120 0 88 -2 98 -25 120 -22 23 -32 25 -115 25 -83 0 -93 -2 -115 -25z m225 -5 c17 -17 20 -33 20 -115 0 -128 -7 -135 -130 -135 -123 0 -130 7 -130 135 0 128 7 135 130 135 77 0 93 -3 110 -20z" fill="#f44336"/>
<path d="M2072 748 l3 -243 174 -3 c169 -2 174 -2 216 22 38 23 82 72 73 81 -2 2 -12 -9 -23 -26 -39 -58 -82 -69 -268 -69 l-167 0 0 235 0 235 173 0 c162 0 174 -1 210 -23 35 -22 77 -70 77 -91 0 -5 -10 6 -23 25 -12 18 -38 44 -56 56 -32 22 -44 23 -202 23 l-169 0 0 -225 0 -225 160 0 c113 0 170 4 193 14 37 15 87 69 87 94 0 11 3 13 8 5 12 -19 6 251 -7 274 -6 12 -28 35 -48 50 l-36 28 -189 3 -188 3 2 -243z m362 127 c25 -23 26 -28 26 -128 0 -90 -3 -106 -20 -125 -28 -29 -49 -33 -163 -30 l-98 3 -2 153 -2 152 116 0 c109 0 118 -1 143 -25z" fill="#f44336"/>
<path d="M2291 881 c76 -4 122 -11 133 -20 13 -11 16 -33 16 -116 0 -83 -3 -105 -16 -116 -11 -9 -57 -16 -133 -20 l-116 -5 111 -2 c99 -2 114 0 138 19 25 20 26 24 26 123 0 94 -2 104 -23 124 -21 20 -33 22 -138 20 l-114 -2 116 -5z" fill="#f44336"/>
<path d="M2622 748 l3 -243 240 0 240 0 0 50 0 50 -190 0 -190 1 188 -3 188 -3 -3 -43 -3 -42 -233 0 -232 -1 230 3 230 3 0 35 0 35 -182 0 -183 0 0 60 0 60 93 0 92 0 0 35 0 35 -92 0 -93 0 0 60 0 60 183 0 182 0 0 35 0 35 -232 3 -233 2 238 3 238 2 -3 -42 -3 -43 -185 -5 -185 -6 190 1 190 0 0 50 0 50 -243 3 -242 2 2 -242z" fill="#f44336"/>
<path d="M3244 971 c-32 -20 -64 -57 -64 -76 0 -5 9 4 20 22 33 54 63 63 212 63 152 0 188 -12 220 -71 30 -56 25 -69 -27 -69 -31 0 -47 5 -54 18 -6 9 -11 12 -11 6 0 -22 29 -35 72 -32 42 3 43 4 42 36 -2 41 -26 77 -67 102 -28 17 -51 20 -172 20 -120 0 -144 -3 -171 -19z" fill="#f44336"/>
<path d="M3727 984 c-10 -10 -8 -456 1 -472 7 -9 62 -12 243 -10 l234 3 3 53 3 52 -185 0 -186 0 0 40 0 39 93 3 92 3 3 53 3 52 -95 0 -96 0 0 40 0 40 183 2 182 3 0 50 0 50 -236 3 c-129 1 -238 -1 -242 -4z m473 -49 l0 -45 -185 0 -185 0 0 -50 0 -50 95 0 95 0 0 -45 0 -45 -95 0 -95 0 0 -50 0 -50 185 0 185 0 0 -45 0 -45 -232 2 -233 3 -3 233 -2 232 235 0 235 0 0 -45z" fill="#f44336"/>
<path d="M3740 745 l0 -225 225 0 225 0 0 35 0 35 -182 2 -183 3 0 55 0 55 93 3 92 3 0 34 0 34 -92 3 -93 3 0 55 0 55 183 3 182 2 0 35 0 35 -225 0 -225 0 0 -225z" fill="#f44336"/>
<path d="M4370 971 c-19 -10 -48 -37 -65 -60 -29 -42 -30 -46 -30 -159 0 -138 14 -178 78 -220 37 -25 50 -27 158 -30 102 -3 122 -1 157 17 66 33 114 105 98 146 -4 11 -20 15 -56 15 -44 0 -52 -3 -60 -24 -5 -14 -19 -30 -31 -36 -29 -16 -194 -9 -211 8 -9 9 -13 45 -13 118 0 132 2 134 130 134 96 0 112 -7 128 -53 6 -15 16 -18 59 -15 46 3 53 6 56 25 5 36 -38 102 -84 129 -37 22 -52 24 -160 24 -97 0 -126 -3 -154 -19z m317 -17 c38 -28 73 -81 73 -110 0 -22 -4 -24 -45 -24 -39 0 -46 4 -59 29 -20 38 -31 41 -137 41 -83 0 -92 -2 -115 -25 -25 -25 -26 -30 -22 -125 4 -130 8 -134 131 -138 82 -3 95 -1 120 18 15 12 27 28 27 36 0 10 14 14 51 14 l52 0 -7 -31 c-9 -46 -44 -89 -90 -110 -31 -14 -65 -19 -144 -19 -117 0 -155 11 -195 59 -37 44 -49 100 -45 200 4 106 25 152 82 186 39 24 47 26 168 23 110 -3 130 -6 155 -24z" fill="#f44336"/>
<path d="M4370 947 c-61 -41 -75 -78 -75 -202 0 -128 15 -165 81 -203 35 -20 50 -22 156 -20 129 3 151 12 196 78 32 48 29 60 -16 60 -32 0 -41 -5 -50 -25 -16 -35 -49 -45 -148 -45 -81 0 -87 2 -115 29 -28 28 -29 33 -29 120 0 145 16 161 159 161 74 0 93 -3 115 -21 14 -11 26 -27 26 -35 0 -10 12 -14 41 -14 40 0 41 1 34 27 -10 41 -41 79 -79 97 -25 12 -64 16 -149 16 -102 0 -118 -2 -147 -23z" fill="#f44336"/>
<path d="M3264 960 c-11 -4 -33 -22 -47 -40 -35 -41 -38 -114 -6 -154 37 -47 68 -56 197 -56 131 0 152 -9 152 -63 0 -45 -31 -57 -148 -57 -96 0 -104 2 -128 25 -30 31 -90 35 -97 8 -4 -14 -5 -12 -6 5 -1 19 4 22 40 22 32 0 47 -6 65 -25 22 -23 29 -25 124 -25 106 0 140 9 140 38 0 13 -3 12 -16 -6 -14 -20 -23 -22 -119 -22 -81 0 -107 3 -119 16 -9 8 -16 20 -16 25 0 5 -25 9 -56 9 l-57 0 6 -35 c8 -47 39 -89 81 -109 26 -12 65 -16 160 -16 107 0 133 3 166 20 99 51 105 193 10 258 -30 20 -45 22 -156 22 -98 0 -126 3 -138 16 -9 8 -16 11 -16 5 0 -20 28 -26 157 -31 l133 -5 36 -37 c67 -67 54 -168 -28 -218 -28 -17 -51 -20 -161 -20 -75 0 -137 5 -150 11 -29 15 -77 60 -77 72 0 5 9 -2 21 -17 37 -47 68 -56 199 -56 139 0 179 12 210 62 27 44 26 97 -3 139 -35 52 -58 59 -193 59 -133 0 -152 8 -150 61 2 52 18 59 141 59 109 0 114 -1 133 -25 15 -18 29 -25 56 -25 24 0 36 5 36 14 0 22 -44 80 -70 93 -29 15 -272 17 -306 3z" fill="#f44336"/>
<path d="M3292 878 c-7 -7 -12 -16 -12 -22 0 -5 6 -2 13 8 12 16 27 17 129 14 64 -1 114 0 111 5 -8 12 -228 8 -241 -5z" fill="#f44336"/>
<path d="M3173 840 c0 -25 2 -35 4 -22 2 12 2 32 0 45 -2 12 -4 2 -4 -23z" fill="#f44336"/>
<path d="M2554 745 c0 -49 1 -71 3 -48 2 23 2 64 0 90 -2 26 -3 8 -3 -42z" fill="#f44336"/>
<path d="M2826 793 l95 -4 -3 -42 -3 -42 -95 -6 -95 -6 100 1 100 1 0 50 0 50 -98 1 -97 0 96 -3z" fill="#f44336"/>
<path d="M3180 784 c0 -20 39 -61 74 -78 25 -12 64 -16 149 -16 92 0 119 -3 131 -16 9 -8 16 -11 16 -6 0 23 -33 31 -155 34 -140 3 -163 11 -199 68 -8 14 -16 20 -16 14z" fill="#f44336"/>
</g>
</svg>